PathFileType	4	(X/Y/Z)	./resultDataOpenSim/trcMotMarkerGrf/sub09/qtm-02-01.trc
DataRate	CameraRate	NumFrames	NumMarkers	Units	OrigDataRate	OrigDataStartFrame	OrigNumFrames
250.000000	250.000000	8	24	m	250.000000	365	486
Frame#	Time	L.Toe.Tip			R.Toe.Tip			L.Ankle.Lat			R.Ankle.Lat			L.Ankle.Med			R.Ankle.Med			L.Heel			R.Heel			L.Knee.Lat			R.Knee.Lat			L.Knee.Med			R.Knee.Med			L.Thigh.Upper			R.Thigh.Upper			L.ASIS			R.ASIS			V.Sacral			L.Acromium			R.Acromium			C7			L.Elbow			R.Elbow			L.Wrist.Lat			R.Wrist.Lat
		X1	Y1	Z1	X2	Y2	Z2	X3	Y3	Z3	X4	Y4	Z4	X5	Y5	Z5	X6	Y6	Z6	X7	Y7	Z7	X8	Y8	Z8	X9	Y9	Z9	X10	Y10	Z10	X11	Y11	Z11	X12	Y12	Z12	X13	Y13	Z13	X14	Y14	Z14	X15	Y15	Z15	X16	Y16	Z16	X17	Y17	Z17	X18	Y18	Z18	X19	Y19	Z19	X20	Y20	Z20	X21	Y21	Z21	X22	Y22	Z22	X23	Y23	Z23	X24	Y24	Z24

365	1.456	0.85095043	0.1084757	-0.061553059	0.99863565	0.03869702	0.060361911	0.76223398	0.23457834	-0.086678116	0.85128112	0.055875997	0.10297304	0.79323676	0.22372055	0.0063627757	0.86014036	0.098143307	0.01304008	0.68328606	0.24567528	-0.038182761	0.78149412	0.039252905	0.055843438	1.0574129	0.515629	-0.099983534	0.96023011	0.50094562	0.17124807	1.0511707	0.49993877	0.023077892	0.93530093	0.49406688	0.045098791	0.88642619	0.89090914	-0.12713199	0.89006499	0.90351065	0.24151994	0.95716978	0.98118745	-0.070676741	0.97066537	0.98950521	0.16701264	0.79174813	1.0369965	0.053268871	0.92906567	1.4376029	-0.12181085	0.92868302	1.4494917	0.20962816	0.86313726	1.4912351	0.046146381	0.77309502	1.1016985	-0.16877599	0.81547041	1.1025963	0.30937976	0.89828725	0.87117655	-0.2104446	0.99882711	0.89632813	0.3037924
366	1.46	0.86828044	0.10720708	-0.062881642	0.9986675	0.038653101	0.06042368	0.77642965	0.23069842	-0.086939197	0.85121242	0.056147766	0.10289661	0.80801891	0.22003468	0.0059649015	0.86044195	0.098427209	0.013011211	0.69731569	0.23957765	-0.038206591	0.78185406	0.039437047	0.05578159	1.0660592	0.51807814	-0.099603199	0.96126942	0.50103811	0.17133084	1.0580714	0.50134095	0.023243897	0.93647814	0.49432515	0.045257689	0.8922284	0.89204538	-0.12750641	0.89461257	0.90422149	0.24106053	0.96238765	0.98221849	-0.070543156	0.97521512	0.99010834	0.1671766	0.79643224	1.0377893	0.052974857	0.93418569	1.4383115	-0.12183764	0.9337448	1.4503471	0.20957779	0.86828494	1.4919793	0.046176081	0.7772676	1.1028973	-0.16877821	0.82038142	1.1031849	0.30923579	0.9017018	0.87205522	-0.21090781	1.0050897	0.89785918	0.3031965
367	1.464	0.88584726	0.10590044	-0.06411718	0.99868978	0.038599223	0.060475329	0.79075051	0.2266799	-0.087199391	0.85122314	0.056398665	0.10275099	0.82279517	0.21629807	0.0055903812	0.86090516	0.098771826	0.012922021	0.71151935	0.23332404	-0.038327006	0.78211891	0.039662922	0.055604894	1.0744948	0.52041572	-0.099266368	0.96228253	0.50109812	0.17141932	1.0646348	0.50267848	0.023331035	0.93789191	0.49444605	0.045397433	0.89806178	0.89312935	-0.12787614	0.89874962	0.90466646	0.24092667	0.96760666	0.98319279	-0.070412441	0.97974706	0.9906754	0.16733237	0.80114364	1.0385485	0.052696057	0.93931358	1.4389733	-0.12185884	0.93879078	1.45115	0.20953154	0.87343871	1.4926589	0.046268918	0.78148627	1.1040385	-0.16878634	0.82535881	1.1037496	0.30915107	0.9051414	0.87290114	-0.21136263	1.0113153	0.89933889	0.30259406
368	1.468	0.90376623	0.10455996	-0.06526539	0.99872827	0.038543997	0.060507589	0.8052091	0.22252332	-0.08745882	0.85136457	0.056612158	0.10250417	0.83759908	0.21251577	0.005230384	0.86134036	0.099103823	0.012748781	0.72588374	0.2269284	-0.038524782	0.78226195	0.039946643	0.055282969	1.0827427	0.52262783	-0.098965138	0.96330212	0.50113472	0.17156116	1.0708188	0.50399365	0.023287109	0.93949275	0.49442663	0.045462704	0.90399151	0.8941631	-0.12827077	0.90238574	0.90480621	0.24117751	0.97283075	0.98410913	-0.070285398	0.98426639	0.99120533	0.16747826	0.8058732	1.0392711	0.052430253	0.94444708	1.439582	-0.12187603	0.94382543	1.4519019	0.20949245	0.87859374	1.493293	0.046383718	0.78574993	1.1051271	-0.16879067	0.83039966	1.1042906	0.30912212	0.90860966	0.87371225	-0.21180781	1.0175057	0.90076616	0.3019845
369	1.472	0.92196349	0.10315382	-0.066313342	0.99880162	0.038488043	0.060512832	0.81981281	0.21823345	-0.087717786	0.85154719	0.056809405	0.10219749	0.85241192	0.208708	0.0048988646	0.86150904	0.09933621	0.012478316	0.74045652	0.22039512	-0.038817157	0.78231421	0.040257438	0.054843845	1.0908255	0.52471979	-0.098704751	0.96431554	0.50116283	0.17171759	1.0766071	0.50531804	0.023075735	0.94113008	0.49434946	0.045444926	0.90992886	0.89513814	-0.12867556	0.90576095	0.90481424	0.24159213	0.97805612	0.98496485	-0.070165216	0.98878611	0.9916958	0.16761684	0.81067137	1.0399282	0.052112402	0.94958339	1.4401365	-0.12189224	0.94884879	1.4526016	0.20945938	0.88374034	1.4938988	0.046460852	0.79005019	1.1061651	-0.16878953	0.83545878	1.1047913	0.30911971	0.91212143	0.87447342	-0.2122473	1.0236589	0.90213911	0.30136809
370	1.476	0.94020328	0.10166459	-0.067222774	0.99892911	0.038445812	0.060488347	0.83456488	0.21382111	-0.087979655	0.85169003	0.057015149	0.10188297	0.86721675	0.20488459	0.0046241515	0.86144234	0.099467075	0.012123132	0.7552666	0.21373641	-0.039209605	0.78232364	0.040570431	0.054333296	1.0987687	0.52668642	-0.098481471	0.96530888	0.50117732	0.17184518	1.0820411	0.5066538	0.022698512	0.94267133	0.49431375	0.045383328	0.91573097	0.89603973	-0.12905891	0.90925514	0.90492968	0.24185704	0.98328267	0.98575618	-0.070059735	0.99331569	0.99214421	0.16775346	0.81574245	1.0404884	0.051635263	0.95472421	1.4406401	-0.12191506	0.95385669	1.4532456	0.20942689	0.88887222	1.4944716	0.046475768	0.79438517	1.1071475	-0.16879201	0.84050593	1.1052383	0.309122	0.9156893	0.87516561	-0.21268852	1.0297734	0.90345375	0.30074607
371	1.48	0.95828532	0.10012389	-0.067935144	0.99912704	0.038443695	0.060436393	0.84946983	0.20929949	-0.088255155	0.85178945	0.057237525	0.10158506	0.88205842	0.20102801	0.0044182875	0.86141676	0.099572072	0.011718454	0.77026717	0.20698398	-0.039656268	0.78234518	0.040884767	0.053811757	1.106584	0.5285172	-0.098288724	0.9662984	0.50117626	0.1719554	1.0872343	0.50796421	0.022206458	0.94404648	0.49438898	0.045329838	0.92135945	0.89685776	-0.12941248	0.91306127	0.90522718	0.24186028	0.98851501	0.98647987	-0.06997174	0.99785713	0.99254895	0.16789005	0.82136124	1.0409518	0.05094414	0.95987657	1.4410949	-0.12195075	0.95884801	1.4538311	0.20939092	0.89398729	1.4950031	0.046442218	0.79875773	1.1080681	-0.16880953	0.84554875	1.1056323	0.30913041	0.91931356	0.8757818	-0.21313521	1.0358476	0.90470721	0.30011914
372	1.484	0.97622303	0.098583959	-0.068400563	0.99937077	0.038480723	0.060372882	0.86453581	0.20467623	-0.088558201	0.85186367	0.057470573	0.10130843	0.89701495	0.19712281	0.0042489919	0.86163259	0.099720853	0.011306723	0.78541259	0.20016881	-0.040123081	0.78241674	0.041203068	0.053327057	1.1142496	0.53021253	-0.098126557	0.96729113	0.5011788	0.17206062	1.09233	0.50919219	0.02167652	0.94525431	0.49458731	0.045307903	0.92685441	0.89759315	-0.12973163	0.91714895	0.90562427	0.24168779	0.99375297	0.98713767	-0.069891273	1.0024075	0.99291018	0.16802195	0.82749875	1.0413453	0.050125717	0.96504563	1.4415011	-0.1219967	0.96382969	1.4543584	0.20935293	0.89908657	1.4954928	0.046384332	0.80316722	1.1089266	-0.16884512	0.85061361	1.1059845	0.30916038	0.92298977	0.87632913	-0.21358426	1.0418783	0.90590078	0.29948694
